PathFileType	4	(X/Y/Z)	Static 1_gm.trc
DataRate	CameraRate	NumFrames	NumMarkers	Units	OrigDataRate	OrigDataStartFrame	OrigNumFrames
150	150	4	82	mm	150	133	529
Frame#	Time	P1			P2			P3			ST1			ST2			ST3			LACR1			LACR2			LACR3			LUA1			LUA2			LUA3			LUA4			LLA1			LLA2			LLA3			LLA4			LH1			LH2			LH3			RACR1			RACR2			RACR3			RUA1			RUA2			RUA3			RUA4			RLA1			RLA2			RLA3			RLA4			RH1			RH2			RH3			REL			REM			RRS			RUS			RMC3			RMCP2			RMCP3			RMCP5			RAA			RAI			RTS			RPC			RAC			RGH			C7			T8			IJ			PX			RElevationplaneH2			RShoulderElevationH2			RShoulderRotationH2			RElevationplaneH1			RShoulderElevationH1			RShoulderRotationH1			RElbowFlExt			RElbowProSupination			RWristFlExt			RWristDeviation			RScapProRetraction			RScapRotation			RScapTilting			RTrunkFlExt			RTrunkLateralFl			RTrunkAxialRotation			RH2SAG_Flexion			RH2SAG_Abduction			RH2SAG_Rotation			RH2FRONT_Abduction			RH2FRONT_Flexion			RH2FRONT_Rotation			RH1SAG_Flexion			RH1SAG_Abduction			RH1SAG_Rotation			RH1FRONT_Abduction			RH1FRONT_Flexion			RH1FRONT_Rotation			REB			HWM		
		X1	Y1	Z1	X2	Y2	Z2	X3	Y3	Z3	X4	Y4	Z4	X5	Y5	Z5	X6	Y6	Z6	X7	Y7	Z7	X8	Y8	Z8	X9	Y9	Z9	X10	Y10	Z10	X11	Y11	Z11	X12	Y12	Z12	X13	Y13	Z13	X14	Y14	Z14	X15	Y15	Z15	X16	Y16	Z16	X17	Y17	Z17	X18	Y18	Z18	X19	Y19	Z19	X20	Y20	Z20	X21	Y21	Z21	X22	Y22	Z22	X23	Y23	Z23	X24	Y24	Z24	X25	Y25	Z25	X26	Y26	Z26	X27	Y27	Z27	X28	Y28	Z28	X29	Y29	Z29	X30	Y30	Z30	X31	Y31	Z31	X32	Y32	Z32	X33	Y33	Z33	X34	Y34	Z34	X35	Y35	Z35	X36	Y36	Z36	X37	Y37	Z37	X38	Y38	Z38	X39	Y39	Z39	X40	Y40	Z40	X41	Y41	Z41	X42	Y42	Z42	X43	Y43	Z43	X44	Y44	Z44	X45	Y45	Z45	X46	Y46	Z46	X47	Y47	Z47	X48	Y48	Z48	X49	Y49	Z49	X50	Y50	Z50	X51	Y51	Z51	X52	Y52	Z52	X53	Y53	Z53	X54	Y54	Z54	X55	Y55	Z55	X56	Y56	Z56	X57	Y57	Z57	X58	Y58	Z58	X59	Y59	Z59	X60	Y60	Z60	X61	Y61	Z61	X62	Y62	Z62	X63	Y63	Z63	X64	Y64	Z64	X65	Y65	Z65	X66	Y66	Z66	X67	Y67	Z67	X68	Y68	Z68	X69	Y69	Z69	X70	Y70	Z70	X71	Y71	Z71	X72	Y72	Z72	X73	Y73	Z73	X74	Y74	Z74	X75	Y75	Z75	X76	Y76	Z76	X77	Y77	Z77	X78	Y78	Z78	X79	Y79	Z79	X80	Y80	Z80	X81	Y81	Z81	X82	Y82	Z82
	
133	0.880000	331.549683	1637.188843	-787.823425	239.885406	1705.744263	-777.649048	187.404770	1602.404541	-784.478455	326.756042	1167.251099	-27.706705	348.745087	1114.061890	4.761030	329.515930	1166.312134	28.419302	274.579865	1267.569092	-213.708740	183.441711	1229.865723	-150.149704	214.428894	1170.562134	-238.306534	229.291550	1075.960938	-215.900452	247.775040	1008.092773	-216.516663	286.041046	1026.058960	-196.363419	281.671112	1101.384399	-196.245331	445.488220	737.284424	-199.768890	515.082825	747.352051	-264.577942	547.732727	823.161133	-159.679001	458.029297	771.816162	-142.003510	530.361511	703.180969	-191.485641	579.919556	701.042297	-176.624756	543.404846	726.538147	-148.411163	287.675446	1256.486938	237.625198	241.550278	1159.527588	263.702484	204.890411	1218.204834	173.596725	307.305908	1067.359131	217.121078	317.094818	1006.343445	213.936676	263.200531	989.897766	233.273575	255.247559	1057.410156	233.951126	470.411957	779.438782	154.198288	565.958618	817.406616	154.616394	537.840027	738.814697	253.818253	458.481506	730.433777	195.936905	553.438232	728.230591	128.655273	591.307068	708.133057	153.835587	543.269836	698.352173	178.284241	330.321289	853.754700	228.915237	287.763733	838.768127	185.061508	520.867676	721.693115	122.442894	520.899048	715.912598	171.813278	559.597900	708.097473	150.878067	603.771240	704.420166	122.623268	607.017212	694.826294	149.691330	580.228455	668.748169	172.445068	189.608017	1160.797119	145.033554	156.655869	1036.891113	104.912292	174.628769	1176.628540	77.663155	292.112335	1155.674805	130.552887	266.969330	1187.793213	169.413620	265.481323	1144.301758	156.097809	196.398163	1253.507080	2.458448	151.619644	1097.628906	16.259235	300.688293	1176.289307	2.281788	353.072357	1009.210876	1.766842	0.000000	0.000000	41.523335	0.000000	0.000000	-10.014013	0.000000	0.000000	-20.174267	0.000000	0.000000	41.523335	0.000000	0.000000	-10.014013	0.000000	0.000000	0.557844	0.000000	0.000000	49.695618	0.000000	0.000000	138.747131	0.000000	0.000000	-16.595148	0.000000	0.000000	4.757881	0.000000	0.000000	10.429354	0.000000	0.000000	15.509872	0.000000	0.000000	-10.978182	0.000000	0.000000	0.095195	0.000000	0.000000	-0.341843	0.000000	0.000000	0.077092	0.000000	0.000000	6.676587	0.000000	0.000000	-7.480471	0.000000	0.000000	21.786024	0.000000	0.000000	-7.530963	0.000000	0.000000	6.619509	0.000000	0.000000	20.912922	0.000000	0.000000	6.676587	0.000000	0.000000	-7.480471	0.000000	0.000000	42.518135	0.000000	0.000000	-7.530963	0.000000	0.000000	6.619509	0.000000	0.000000	41.645035	309.042511	846.261414	206.988373	520.883362	718.802856	147.128082
134	0.886667	331.664246	1637.143066	-787.754150	240.026840	1705.753906	-777.548340	187.498764	1602.440552	-784.381409	326.721497	1167.228027	-27.712023	348.748657	1114.038208	4.755310	329.464417	1166.281860	28.413103	274.609283	1267.560913	-213.704132	183.451096	1229.858154	-150.160416	214.443771	1170.558594	-238.322021	229.289368	1075.993164	-215.949799	247.786392	1008.098328	-216.519318	286.065430	1026.057495	-196.362946	281.675598	1101.383667	-196.252136	445.509796	737.318298	-199.777969	515.059448	747.359680	-264.573914	547.757629	823.163330	-159.695862	458.014160	771.808411	-142.001190	530.356018	703.181335	-191.440674	579.931335	701.056519	-176.576797	543.392273	726.510254	-148.412811	287.659027	1256.494019	237.634583	241.521942	1159.538940	263.683075	204.878464	1218.233887	173.614929	307.305756	1067.336548	217.143341	317.105103	1006.332275	213.927734	263.206329	989.900146	233.272781	255.229660	1057.506592	233.934723	470.419708	779.395081	154.151016	565.960205	817.400818	154.649399	537.847229	738.830750	253.856796	458.484833	730.421936	195.936066	553.426697	728.260681	128.700073	591.289490	708.096130	153.865463	543.252625	698.343689	178.305420	330.251373	853.754028	228.936844	287.700378	838.781372	185.071976	520.921204	721.661987	122.471123	520.929810	715.899170	171.843567	559.578613	708.097778	150.907471	603.742554	704.404846	122.639946	606.985168	694.783020	149.698471	580.176636	668.709167	172.433884	189.580643	1160.839600	145.025238	156.612549	1036.947632	104.873764	174.601196	1176.689819	77.659286	292.083893	1155.708862	130.540100	266.945923	1187.820435	169.409698	265.452332	1144.332520	156.082977	196.285721	1253.368652	2.424548	151.629547	1097.451904	16.186836	300.638641	1176.235718	2.269267	353.158691	1009.199890	1.745161	0.000000	0.000000	41.269802	0.000000	0.000000	-9.987122	0.000000	0.000000	-19.909544	0.000000	0.000000	41.269802	0.000000	0.000000	-9.987122	0.000000	0.000000	0.823077	0.000000	0.000000	49.710964	0.000000	0.000000	138.761490	0.000000	0.000000	-16.530302	0.000000	0.000000	4.735261	0.000000	0.000000	10.437593	0.000000	0.000000	15.526996	0.000000	0.000000	-11.030087	0.000000	0.000000	0.104190	0.000000	0.000000	-0.295230	0.000000	0.000000	0.058851	0.000000	0.000000	6.625411	0.000000	0.000000	-7.489798	0.000000	0.000000	21.794399	0.000000	0.000000	-7.539576	0.000000	0.000000	6.568633	0.000000	0.000000	20.926977	0.000000	0.000000	6.625411	0.000000	0.000000	-7.489798	0.000000	0.000000	42.527020	0.000000	0.000000	-7.539576	0.000000	0.000000	6.568633	0.000000	0.000000	41.659595	308.975891	846.267700	207.004410	520.925537	718.780579	147.157349
135	0.893333	331.753204	1637.110474	-787.697205	240.169495	1705.745483	-777.440491	187.589783	1602.445923	-784.305176	326.748688	1167.241821	-27.713741	348.730621	1114.055664	4.759030	329.459808	1166.286865	28.402721	274.599884	1267.569702	-213.694916	183.430664	1229.884277	-150.141907	214.459076	1170.561035	-238.337585	229.285461	1075.991455	-215.922333	247.781143	1008.115051	-216.524918	286.016571	1026.039551	-196.410568	281.657104	1101.443481	-196.317886	445.522339	737.307251	-199.795822	515.108276	747.351196	-264.578888	547.723511	823.185974	-159.697296	458.015045	771.831482	-142.021500	530.335266	703.204102	-191.476959	579.934509	701.044800	-176.581039	543.393982	726.526062	-148.412415	287.624390	1256.483398	237.641815	241.505478	1159.510620	263.708130	204.896530	1218.214722	173.601639	307.308380	1067.374390	217.100266	317.082458	1006.331360	213.916336	263.151306	989.901733	233.282135	255.217438	1057.407837	233.943512	470.399445	779.409058	154.223679	565.964172	817.390381	154.675873	537.844604	738.850159	253.835419	458.462067	730.413269	195.935806	553.456299	728.264221	128.689133	591.306030	708.119629	153.895370	543.247070	698.368591	178.312622	330.262360	853.747131	228.923218	287.695435	838.763489	185.077591	520.889099	721.678650	122.477669	520.908325	715.904968	171.848846	559.594788	708.112976	150.915924	603.779907	704.412231	122.682648	607.004639	694.806335	149.748978	580.184387	668.740417	172.479645	189.612640	1160.800293	145.014526	156.683258	1036.897461	104.864960	174.659286	1176.639160	77.640129	292.122986	1155.685547	130.573929	266.962799	1187.797729	169.428619	265.482452	1144.307861	156.106873	196.327423	1253.434570	2.349320	151.602692	1097.534180	16.074373	300.650421	1176.261108	2.248632	353.105835	1009.204956	1.742589	0.000000	0.000000	41.385601	0.000000	0.000000	-9.999149	0.000000	0.000000	-19.999376	0.000000	0.000000	41.385601	0.000000	0.000000	-9.999149	0.000000	0.000000	0.760691	0.000000	0.000000	49.707165	0.000000	0.000000	138.747147	0.000000	0.000000	-16.546560	0.000000	0.000000	4.780208	0.000000	0.000000	10.453258	0.000000	0.000000	15.508907	0.000000	0.000000	-10.999608	0.000000	0.000000	0.108567	0.000000	0.000000	-0.317438	0.000000	0.000000	0.025725	0.000000	0.000000	6.648608	0.000000	0.000000	-7.485386	0.000000	0.000000	21.821630	0.000000	0.000000	-7.535486	0.000000	0.000000	6.591697	0.000000	0.000000	20.951653	0.000000	0.000000	6.648608	0.000000	0.000000	-7.485386	0.000000	0.000000	42.581699	0.000000	0.000000	-7.535486	0.000000	0.000000	6.591697	0.000000	0.000000	41.711720	308.978882	846.255310	207.000397	520.898682	718.791809	147.163254
136	0.900000	331.846741	1637.077637	-787.619812	240.295303	1705.754395	-777.346619	187.676941	1602.468506	-784.169617	326.755920	1167.233154	-27.727842	348.734009	1114.044312	4.759275	329.483856	1166.270630	28.425219	274.620361	1267.578125	-213.723282	183.455536	1229.880005	-150.171631	214.444870	1170.573486	-238.349380	229.277191	1076.023315	-215.939804	247.764648	1008.111877	-216.516296	286.009033	1026.061401	-196.403854	281.685181	1101.447021	-196.300201	445.502350	737.328491	-199.775208	515.093384	747.364929	-264.582916	547.730103	823.186707	-159.680618	458.040985	771.848694	-142.035110	530.340942	703.200012	-191.475952	579.910034	701.035706	-176.624985	543.404907	726.545959	-148.417664	287.623871	1256.494141	237.631393	241.494034	1159.502075	263.691895	204.879547	1218.193115	173.580551	307.282135	1067.356201	217.141129	317.077209	1006.346985	213.914047	263.178680	989.914673	233.260773	255.218353	1057.419434	233.928329	470.406982	779.423523	154.226547	565.984497	817.407104	154.631744	537.824219	738.814148	253.875992	458.467438	730.401672	195.943985	553.448364	728.235962	128.660645	591.283875	708.129395	153.882050	543.242554	698.359924	178.326050	330.286469	853.757812	228.878922	287.738495	838.783081	185.011826	520.886353	721.671509	122.480415	520.905212	715.898865	171.851715	559.584839	708.100464	150.909073	603.770752	704.400879	122.676857	607.001099	694.816040	149.749954	580.194336	668.753418	172.500305	189.611206	1160.783936	144.999283	156.695816	1036.875488	104.855370	174.658905	1176.617432	77.623413	292.122620	1155.678467	130.563004	266.957703	1187.790405	169.414902	265.482239	1144.299683	156.095535	196.361359	1253.452026	2.389850	151.606689	1097.560669	16.119667	300.667847	1176.256348	2.260883	353.087494	1009.189026	1.735626	0.000000	0.000000	41.468048	0.000000	0.000000	-10.008414	0.000000	0.000000	-20.107845	0.000000	0.000000	41.468048	0.000000	0.000000	-10.008414	0.000000	0.000000	0.638528	0.000000	0.000000	49.688381	0.000000	0.000000	138.760117	0.000000	0.000000	-16.581392	0.000000	0.000000	4.773050	0.000000	0.000000	10.440886	0.000000	0.000000	15.499521	0.000000	0.000000	-10.983356	0.000000	0.000000	0.110722	0.000000	0.000000	-0.329696	0.000000	0.000000	0.039582	0.000000	0.000000	6.665602	0.000000	0.000000	-7.482728	0.000000	0.000000	21.796570	0.000000	0.000000	-7.533069	0.000000	0.000000	6.608585	0.000000	0.000000	20.924656	0.000000	0.000000	6.665602	0.000000	0.000000	-7.482728	0.000000	0.000000	42.542942	0.000000	0.000000	-7.533069	0.000000	0.000000	6.608585	0.000000	0.000000	41.671028	309.012482	846.270447	206.945374	520.895752	718.785156	147.166061
